<svg width="2104" height="602" viewBox="0 0 2104 602" fill="none" xmlns="http://www.w3.org/2000/svg">
<path fill-rule="evenodd" clip-rule="evenodd" d="M2.23644e-09 301.001C-0.000633913 134.764 134.76 0.0013166 300.998 1.86744e-09C380.828 -0.000281 457.389 31.7121 513.838 88.1609C570.287 144.61 602 221.171 602 301.001C601.999 467.239 467.237 602 301 602C134.763 602 0.000633917 467.238 2.23644e-09 301.001ZM185.627 348.098C205.093 394.794 250.788 425.152 301.379 424.999L301.38 425C370.31 424.895 426.104 368.931 426 300.001C426 249.41 395.504 203.807 348.749 184.482C301.994 165.157 248.201 175.921 212.481 211.748C176.762 247.576 166.161 301.402 185.627 348.098Z" fill="url(#paint0_linear)"/>
<path d="M872.25 97.5C890.25 97.5 906.5 101.417 921 109.25C935.667 117.083 947.083 127.917 955.25 141.75C963.583 155.417 967.75 170.833 967.75 188C967.75 205.333 963.583 221 955.25 235C947.083 248.833 935.667 259.75 921 267.75C906.5 275.583 890.25 279.5 872.25 279.5C854.083 279.5 837.75 275.583 823.25 267.75C808.75 259.75 797.333 248.833 789 235C780.833 221 776.75 205.333 776.75 188C776.75 170.833 780.833 155.417 789 141.75C797.333 127.917 808.75 117.083 823.25 109.25C837.75 101.417 854.083 97.5 872.25 97.5ZM873 140.75C865.333 140.75 858.167 142.833 851.5 147C845 151.167 839.75 156.917 835.75 164.25C831.917 171.417 830 179.417 830 188.25C830 197.083 831.917 205.167 835.75 212.5C839.75 219.833 845 225.667 851.5 230C858.167 234.167 865.333 236.25 873 236.25C880.5 236.25 887.417 234.167 893.75 230C900.25 225.667 905.333 219.917 909 212.75C912.667 205.417 914.5 197.25 914.5 188.25C914.5 179.417 912.667 171.417 909 164.25C905.333 156.917 900.333 151.167 894 147C887.667 142.833 880.667 140.75 873 140.75ZM1066.69 100.75C1089.36 100.75 1106.86 106.167 1119.19 117C1131.69 127.833 1137.94 143.167 1137.94 163C1137.94 183.833 1131.69 200 1119.19 211.5C1106.86 223 1089.36 228.75 1066.69 228.75L1039.19 229V276H987.189V100.75H1066.69ZM1064.19 188.75C1072.02 188.75 1078.02 186.667 1082.19 182.5C1086.52 178.333 1088.69 172.333 1088.69 164.5C1088.69 156.833 1086.52 151 1082.19 147C1078.02 142.833 1072.02 140.75 1064.19 140.75H1039.19V188.75H1064.19ZM1157.84 100.75H1301.09V140.75H1209.84V168.25H1292.59V208.25H1209.84V236H1303.59V276H1157.84V100.75ZM1447.25 100.75H1494.75V276H1450.5L1376.25 178.5V276H1328.5V100.75H1373L1447.25 198.5V100.75ZM915 505L904.75 477H834L823.5 505H770L844.75 329.75H898.25L970.5 505H915ZM848.5 439H891L870 381.75L848.5 439ZM1105.15 393.5C1099.65 386.167 1093.07 380.417 1085.4 376.25C1077.9 371.917 1070.57 369.75 1063.4 369.75C1055.57 369.75 1048.48 371.75 1042.15 375.75C1035.82 379.75 1030.82 385.333 1027.15 392.5C1023.48 399.5 1021.65 407.417 1021.65 416.25C1021.65 425.083 1023.48 433.083 1027.15 440.25C1030.82 447.25 1035.82 452.833 1042.15 457C1048.48 461 1055.57 463 1063.4 463C1070.07 463 1077.15 461.167 1084.65 457.5C1092.32 453.833 1099.15 448.833 1105.15 442.5L1135.15 474.5C1125.65 484.833 1114.15 493.083 1100.65 499.25C1087.32 505.417 1074.07 508.5 1060.9 508.5C1043.4 508.5 1027.57 504.583 1013.4 496.75C999.4 488.75 988.4 477.75 980.4 463.75C972.4 449.75 968.4 434.083 968.4 416.75C968.4 399.75 972.484 384.417 980.65 370.75C988.817 356.917 1000.07 346.083 1014.4 338.25C1028.73 330.417 1044.82 326.5 1062.65 326.5C1075.82 326.5 1088.98 329.333 1102.15 335C1115.32 340.667 1126.32 348.25 1135.15 357.75L1105.15 393.5ZM1277.06 505L1266.81 477H1196.06L1185.56 505H1132.06L1206.81 329.75H1260.31L1332.56 505H1277.06ZM1210.56 439H1253.06L1232.06 381.75L1210.56 439ZM1422.09 329.75C1440.76 329.75 1457.18 333.417 1471.34 340.75C1485.68 347.917 1496.76 358.167 1504.59 371.5C1512.43 384.667 1516.34 399.917 1516.34 417.25C1516.34 434.583 1512.34 449.917 1504.34 463.25C1496.34 476.583 1485.09 486.917 1470.59 494.25C1456.09 501.417 1439.34 505 1420.34 505H1345.34V329.75H1422.09ZM1423.59 464.25C1435.43 464.25 1445.01 460 1452.34 451.5C1459.68 443 1463.34 431.75 1463.34 417.75C1463.34 403.75 1459.43 392.417 1451.59 383.75C1443.76 375.083 1433.59 370.75 1421.09 370.75H1397.34V464.25H1423.59ZM1535.77 329.75H1679.02V369.75H1587.77V397.25H1670.52V437.25H1587.77V465H1681.52V505H1535.77V329.75ZM1706.43 329.75H1762.18L1809.18 427L1855.93 329.75H1911.68V505H1865.93V401L1825.93 487.75H1792.18L1752.18 401V505H1706.43V329.75ZM2103.79 329.75L2040.79 449.5V505H1988.79V450.5L1924.54 329.75H1976.54L2014.79 401.25L2052.04 329.75H2103.79Z" fill="#322D1E"/>
<path fill-rule="evenodd" clip-rule="evenodd" d="M2.23644e-09 301.001C-0.000633913 134.764 134.76 0.0013166 300.998 1.86744e-09C380.828 -0.000281 457.389 31.7121 513.838 88.1609C570.287 144.61 602 221.171 602 301.001C601.999 467.239 467.237 602 301 602C134.763 602 0.000633917 467.238 2.23644e-09 301.001ZM185.627 348.098C205.093 394.794 250.788 425.152 301.379 424.999L301.38 425C370.31 424.895 426.104 368.931 426 300.001C426 249.41 395.504 203.807 348.749 184.482C301.994 165.157 248.201 175.921 212.481 211.748C176.762 247.576 166.161 301.402 185.627 348.098Z" fill="url(#paint1_linear)"/>
<mask id="mask0" mask-type="alpha" maskUnits="userSpaceOnUse" x="0" y="0" width="602" height="602">
<path fill-rule="evenodd" clip-rule="evenodd" d="M2.23644e-09 301.001C-0.000633913 134.764 134.76 0.0013166 300.998 1.86744e-09C380.828 -0.000281 457.389 31.7121 513.838 88.1609C570.287 144.61 602 221.171 602 301.001C601.999 467.239 467.237 602 301 602C134.763 602 0.000633917 467.238 2.23644e-09 301.001ZM185.627 348.098C205.093 394.794 250.788 425.152 301.379 424.999L301.38 425C370.31 424.895 426.104 368.931 426 300.001C426 249.41 395.504 203.807 348.749 184.482C301.994 165.157 248.201 175.921 212.481 211.748C176.762 247.576 166.161 301.402 185.627 348.098Z" fill="white"/>
</mask>
<g mask="url(#mask0)">
<g filter="url(#filter0_f)">
<rect x="390.334" y="212.41" width="310" height="250" transform="rotate(44 390.334 212.41)" fill="url(#paint2_linear)"/>
</g>
</g>
<path fill-rule="evenodd" clip-rule="evenodd" d="M301 426C370.036 426 426 370.036 426 301C426 231.964 370.036 176 301 176C231.964 176 176 231.964 176 301C176 370.036 231.964 426 301 426Z" fill="white"/>
<defs>
<filter id="filter0_f" x="189.487" y="185.228" width="451.026" height="449.545" filterUnits="userSpaceOnUse" color-interpolation-filters="sRGB">
<feFlood flood-opacity="0" result="BackgroundImageFix"/>
<feBlend mode="normal" in="SourceGraphic" in2="BackgroundImageFix" result="shape"/>
<feGaussianBlur stdDeviation="13.5914" result="effect1_foregroundBlur"/>
</filter>
<linearGradient id="paint0_linear" x1="-69.9375" y1="279.648" x2="280.016" y2="498.367" gradientUnits="userSpaceOnUse">
<stop stop-color="#8FE0FF"/>
<stop offset="1" stop-color="#1255CC"/>
</linearGradient>
<linearGradient id="paint1_linear" x1="-69.9375" y1="279.648" x2="280.016" y2="498.367" gradientUnits="userSpaceOnUse">
<stop stop-color="#8FE0FF"/>
<stop offset="1" stop-color="#1255CC"/>
</linearGradient>
<linearGradient id="paint2_linear" x1="393.175" y1="369.177" x2="603.945" y2="471.116" gradientUnits="userSpaceOnUse">
<stop stop-color="#062C70"/>
<stop offset="1" stop-color="#1255CC"/>
</linearGradient>
</defs>
</svg>
